<svg xmlns="http://www.w3.org/2000/svg" viewBox="0 0 320 230"><defs><linearGradient id="g" x2="0" y2="1"><stop stop-color="#a8b4aa"/><stop offset="1" stop-color="#65766b"/></linearGradient><filter id="s"><feDropShadow dy="8" stdDeviation="7" flood-opacity=".25"/></filter></defs><g filter="url(#s)"><path d="M35 185Q18 128 62 80Q92 36 154 30Q221 24 272 75Q309 111 286 174Q266 210 205 214H88Q49 211 35 185Z" fill="url(#g)" stroke="#526258" stroke-width="7"/><path d="M78 92Q120 48 177 48Q223 48 260 85Q205 73 170 96Q120 126 78 92Z" fill="#c9d1c8" opacity=".7"/><path d="M120 58l20 36 31-20 26 34 34-10" fill="none" stroke="#66786b" stroke-width="7" stroke-linecap="round"/><g fill="#72a65d"><circle cx="72" cy="184" r="17"/><circle cx="94" cy="193" r="14"/><circle cx="242" cy="194" r="15"/></g></g></svg>