<svg xmlns="http://www.w3.org/2000/svg" viewBox="0 0 1000 650">
<defs>
 <linearGradient id="sky" x2="0" y2="1"><stop stop-color="#9bd9f2"/><stop offset="1" stop-color="#dff4f0"/></linearGradient>
 <linearGradient id="lake" x2="0" y2="1"><stop stop-color="#75c9dd"/><stop offset="1" stop-color="#4fa9bd"/></linearGradient>
 <linearGradient id="ground" x2="0" y2="1"><stop stop-color="#88bd62"/><stop offset="1" stop-color="#5e963f"/></linearGradient>
 <filter id="soft"><feGaussianBlur stdDeviation="3"/></filter>
</defs>
<rect width="1000" height="650" rx="32" fill="url(#sky)"/>
<path d="M0 210L110 115l80 72 120-120 118 123 110-88 112 92 118-105 125 116 107-67v145H0z" fill="#6f9d83" opacity=".9"/>
<path d="M0 250L120 160l78 72 115-108 105 100 108-75 105 84 125-105 116 111 128-72v128H0z" fill="#4f7d67"/>
<path d="M0 262c170-30 300-22 430 4 180 36 360 23 570-11v185H0z" fill="url(#lake)"/>
<path d="M0 323c175-18 330-7 480 19 155 26 332 21 520-15" fill="none" stroke="#c9eef1" stroke-width="9" opacity=".7"/>
<path d="M0 420c205-55 387-53 543-24 176 33 304 36 457-3v257H0z" fill="url(#ground)"/>
<path d="M0 455c200-47 369-41 525-10 164 33 316 35 475 2" fill="none" stroke="#9fd074" stroke-width="18" opacity=".5"/>
<!-- dock -->
<g transform="translate(455 306)"><path d="M0 0h88l95 120H62z" fill="#8c6039"/><path d="M10 12h68l78 95H65z" fill="#b37c49"/>
<g stroke="#70492d" stroke-width="5" opacity=".8"><path d="M20 20l72 87"/><path d="M39 14l72 91"/><path d="M58 12l73 91"/></g></g>
<!-- pine clusters -->
<g fill="#315f43"><path d="M40 420l55-145 55 145h-32l42 86H30l42-86z"/><path d="M115 425l45-120 45 120h-25l34 70H106l34-70z"/><path d="M880 430l52-150 52 150h-30l40 84H870l40-84z"/><path d="M810 435l43-118 43 118h-24l32 66H802l32-66z"/></g>
<!-- foreground grass and flowers -->
<g fill="#397a3f" opacity=".9"><path d="M20 620l15-55 8 54 18-68 3 69zM120 640l18-72 8 70 21-58 2 60zM820 642l14-66 12 63 20-79 3 80zM930 638l15-65 8 61 20-58 2 61z"/></g>
<g fill="#f4c84b"><circle cx="86" cy="558" r="7"/><circle cx="188" cy="585" r="6"/><circle cx="795" cy="575" r="7"/><circle cx="914" cy="550" r="6"/></g>
<g fill="#fff"><circle cx="105" cy="574" r="6"/><circle cx="748" cy="602" r="6"/></g>
</svg>
